<mxfile host="app.diagrams.net" modified="2023-06-11T17:11:47.617Z" agent="Mozilla/5.0 (Windows NT 10.0; Win64; x64; rv:109.0) Gecko/20100101 Firefox/113.0" etag="HuI3-tl2KnRR9DoV0CoJ" version="21.1.8" type="github">
  <diagram name="Página-1" id="AaqsLTTDHY7WDHXGIKEW">
    <mxGraphModel dx="782" dy="781" grid="1" gridSize="10" guides="1" tooltips="1" connect="1" arrows="1" fold="1" page="1" pageScale="1" pageWidth="827" pageHeight="1169" math="0" shadow="0">
      <root>
        <mxCell id="0" />
        <mxCell id="1" parent="0" />
        <mxCell id="cB5H96jYszkSz2Kou0b2-5" style="edgeStyle=orthogonalEdgeStyle;rounded=0;orthogonalLoop=1;jettySize=auto;html=1;" parent="1" source="cB5H96jYszkSz2Kou0b2-1" target="cB5H96jYszkSz2Kou0b2-4" edge="1">
          <mxGeometry relative="1" as="geometry" />
        </mxCell>
        <mxCell id="cB5H96jYszkSz2Kou0b2-6" value="&lt;div&gt;Locação, Devolução, Reservas&lt;br&gt;&lt;/div&gt;, Mala Direta" style="edgeLabel;html=1;align=center;verticalAlign=middle;resizable=0;points=[];" parent="cB5H96jYszkSz2Kou0b2-5" vertex="1" connectable="0">
          <mxGeometry x="-0.1589" relative="1" as="geometry">
            <mxPoint as="offset" />
          </mxGeometry>
        </mxCell>
        <mxCell id="cB5H96jYszkSz2Kou0b2-1" value="Locadora de Vídeos" style="ellipse;whiteSpace=wrap;html=1;fillColor=#d5e8d4;strokeColor=#82b366;" parent="1" vertex="1">
          <mxGeometry x="480" y="290" width="120" height="80" as="geometry" />
        </mxCell>
        <mxCell id="wdnAK-ZnkrTaiptPqwZd-10" style="edgeStyle=orthogonalEdgeStyle;rounded=0;orthogonalLoop=1;jettySize=auto;html=1;entryX=0.375;entryY=1.038;entryDx=0;entryDy=0;entryPerimeter=0;" edge="1" parent="1" source="cB5H96jYszkSz2Kou0b2-4" target="cB5H96jYszkSz2Kou0b2-1">
          <mxGeometry relative="1" as="geometry">
            <Array as="points">
              <mxPoint x="460" y="360" />
              <mxPoint x="460" y="373" />
            </Array>
          </mxGeometry>
        </mxCell>
        <mxCell id="wdnAK-ZnkrTaiptPqwZd-11" value="&lt;div&gt;Consulta Pagamentos&lt;/div&gt;" style="edgeLabel;html=1;align=center;verticalAlign=middle;resizable=0;points=[];" vertex="1" connectable="0" parent="wdnAK-ZnkrTaiptPqwZd-10">
          <mxGeometry x="-0.3373" y="2" relative="1" as="geometry">
            <mxPoint y="2" as="offset" />
          </mxGeometry>
        </mxCell>
        <mxCell id="cB5H96jYszkSz2Kou0b2-4" value="Cliente" style="shape=umlActor;verticalLabelPosition=bottom;verticalAlign=top;html=1;outlineConnect=0;" parent="1" vertex="1">
          <mxGeometry x="170" y="300" width="30" height="60" as="geometry" />
        </mxCell>
        <mxCell id="cB5H96jYszkSz2Kou0b2-11" style="edgeStyle=orthogonalEdgeStyle;rounded=0;orthogonalLoop=1;jettySize=auto;html=1;entryX=0.5;entryY=0;entryDx=0;entryDy=0;" parent="1" source="cB5H96jYszkSz2Kou0b2-9" target="cB5H96jYszkSz2Kou0b2-1" edge="1">
          <mxGeometry relative="1" as="geometry" />
        </mxCell>
        <mxCell id="cB5H96jYszkSz2Kou0b2-12" value="Cadastros, Locação, Devolução, Reserva, Registro de Pagamentos" style="edgeLabel;html=1;align=center;verticalAlign=middle;resizable=0;points=[];" parent="cB5H96jYszkSz2Kou0b2-11" vertex="1" connectable="0">
          <mxGeometry x="-0.1412" relative="1" as="geometry">
            <mxPoint x="118" y="-10" as="offset" />
          </mxGeometry>
        </mxCell>
        <mxCell id="cB5H96jYszkSz2Kou0b2-9" value="&lt;div&gt;Atendente&lt;/div&gt;&lt;div&gt;&lt;br&gt;&lt;/div&gt;" style="shape=umlActor;verticalLabelPosition=bottom;verticalAlign=top;html=1;outlineConnect=0;" parent="1" vertex="1">
          <mxGeometry x="170" y="130" width="30" height="60" as="geometry" />
        </mxCell>
        <mxCell id="wdnAK-ZnkrTaiptPqwZd-8" style="edgeStyle=orthogonalEdgeStyle;rounded=0;orthogonalLoop=1;jettySize=auto;html=1;entryX=1;entryY=0.5;entryDx=0;entryDy=0;" edge="1" parent="1" source="cB5H96jYszkSz2Kou0b2-14" target="cB5H96jYszkSz2Kou0b2-1">
          <mxGeometry relative="1" as="geometry">
            <Array as="points">
              <mxPoint x="955" y="330" />
            </Array>
          </mxGeometry>
        </mxCell>
        <mxCell id="wdnAK-ZnkrTaiptPqwZd-9" value="Consulta Pagamentos" style="edgeLabel;html=1;align=center;verticalAlign=middle;resizable=0;points=[];" vertex="1" connectable="0" parent="wdnAK-ZnkrTaiptPqwZd-8">
          <mxGeometry x="0.2376" y="-2" relative="1" as="geometry">
            <mxPoint as="offset" />
          </mxGeometry>
        </mxCell>
        <mxCell id="cB5H96jYszkSz2Kou0b2-14" value="&lt;div&gt;Distribuidor&lt;/div&gt;&lt;div&gt;&lt;br&gt;&lt;/div&gt;" style="shape=umlActor;verticalLabelPosition=bottom;verticalAlign=top;html=1;outlineConnect=0;" parent="1" vertex="1">
          <mxGeometry x="940" y="200" width="30" height="60" as="geometry" />
        </mxCell>
        <mxCell id="wdnAK-ZnkrTaiptPqwZd-4" style="edgeStyle=orthogonalEdgeStyle;rounded=0;orthogonalLoop=1;jettySize=auto;html=1;" edge="1" parent="1" source="wdnAK-ZnkrTaiptPqwZd-1">
          <mxGeometry relative="1" as="geometry">
            <mxPoint x="540" y="290" as="targetPoint" />
            <Array as="points">
              <mxPoint x="560" y="230" />
              <mxPoint x="560" y="290" />
            </Array>
          </mxGeometry>
        </mxCell>
        <mxCell id="wdnAK-ZnkrTaiptPqwZd-6" style="edgeStyle=orthogonalEdgeStyle;rounded=0;orthogonalLoop=1;jettySize=auto;html=1;entryX=0.5;entryY=0.5;entryDx=0;entryDy=0;entryPerimeter=0;" edge="1" parent="1" source="wdnAK-ZnkrTaiptPqwZd-1" target="cB5H96jYszkSz2Kou0b2-14">
          <mxGeometry relative="1" as="geometry" />
        </mxCell>
        <mxCell id="wdnAK-ZnkrTaiptPqwZd-7" value="&lt;div&gt;Pedidos&lt;/div&gt;" style="edgeLabel;html=1;align=center;verticalAlign=middle;resizable=0;points=[];" vertex="1" connectable="0" parent="wdnAK-ZnkrTaiptPqwZd-6">
          <mxGeometry x="-0.1692" y="1" relative="1" as="geometry">
            <mxPoint as="offset" />
          </mxGeometry>
        </mxCell>
        <mxCell id="wdnAK-ZnkrTaiptPqwZd-1" value="&lt;div&gt;Gerente&lt;/div&gt;&lt;div&gt;&lt;br&gt;&lt;/div&gt;" style="shape=umlActor;verticalLabelPosition=bottom;verticalAlign=top;html=1;outlineConnect=0;" vertex="1" parent="1">
          <mxGeometry x="730" y="200" width="30" height="60" as="geometry" />
        </mxCell>
      </root>
    </mxGraphModel>
  </diagram>
</mxfile>
